# File created by Blade
# Date/Time:  Wed Jan 21 18:40:08 2015
# Frame Rate: 120.000 fps
#------------------------------------------------------
:FULLY-SPECIFIED
:DEGREES
2626
root -3.180045 16.050462 -9.012825 61.540984 -7.158216 25.628187
RightUpLeg -194.009986 -48.483955 59.071531
RightLeg 114.440639 -0.000000 -0.000000
RightFoot -7.694202 52.641018 23.831041
RightToeBase 26.817059 -0.000000 -0.000000
LeftUpLeg -76.947704 42.597166 -25.888820
LeftLeg -6.787356 -0.000000 0.000000
LeftFoot 16.594638 -15.062799 -42.426061
LeftToeBase 7.849687 -0.000000 -0.000000
Spine -35.544014 42.892849 0.225000
RightShoulder -6.541230 11.181923 -28.990827
RightArm -32.792052 24.747016 61.206732
RightForeArm -9.138027 -0.000000 52.697147
RightHand 30.333372 -0.000000 -69.682466
RightHandThumb1 -24.326973 -0.000000 -32.862282
LeftShoulder -28.225341 4.589174 50.928215
LeftArm -3.485039 -14.078359 -29.097530
LeftForeArm 8.466077 -0.000000 -6.094086
LeftHand -29.057489 0.000000 21.464218
LeftHandThumb1 -26.253704 0.000000 33.147579
Head -41.393471 31.637652 1.725419
2627
root -3.178035 16.050381 -8.992967 61.589712 -7.307484 25.603250
RightUpLeg -193.944365 -48.396117 58.928100
RightLeg 114.475986 -0.000000 -0.000000
RightFoot -8.664599 52.651734 22.257634
RightToeBase 25.309620 -0.000000 -0.000000
LeftUpLeg -76.937426 42.684991 -26.025245
LeftLeg -6.860522 -0.000000 0.000000
LeftFoot 16.580716 -15.044134 -42.521444
LeftToeBase 7.872013 -0.000000 -0.000000
Spine -35.492142 42.806870 0.273151
RightShoulder -6.532221 11.335618 -29.053715
RightArm -32.719419 24.911344 61.132288
RightForeArm -10.082160 -0.000000 52.953659
RightHand 29.929681 -0.000000 -69.286143
RightHandThumb1 -24.326973 -0.000000 -32.862282
LeftShoulder -28.156030 4.422711 50.964920
LeftArm -3.381633 -14.254177 -28.888425
LeftForeArm 8.451608 0.000000 -5.901271
LeftHand -29.018219 -0.000000 21.428825
LeftHandThumb1 -26.253704 0.000000 33.147579
Head -41.215617 31.785719 1.667742
2628
root -3.175594 16.050974 -8.973481 61.646938 -7.479395 25.609670
RightUpLeg -193.925394 -48.280984 58.758782
RightLeg 114.407864 -0.000000 -0.000000
RightFoot -7.783653 52.266758 23.461018
RightToeBase 26.362817 -0.000000 -0.000000
LeftUpLeg -76.877883 42.743226 -26.119032
LeftLeg -6.923028 -0.000000 0.000000
LeftFoot 16.534389 -14.997799 -42.602850
LeftToeBase 7.917731 -0.000000 -0.000000
Spine -35.439081 42.681021 0.278871
RightShoulder -6.539062 11.547749 -29.178681
RightArm -32.587886 25.187584 61.043939
RightForeArm -9.831450 -0.000000 52.632378
RightHand 31.792202 -0.000000 -68.835145
RightHandThumb1 -24.326973 -0.000000 -32.862282
LeftShoulder -28.107316 4.413764 50.911921
LeftArm -3.236162 -14.757451 -28.662515
LeftForeArm 8.483367 -0.000000 -5.632806
LeftHand -28.994569 0.000000 21.402572
LeftHandThumb1 -26.253704 0.000000 33.147579
Head -41.075909 31.951465 1.633519
2629
root -3.174649 16.052534 -8.954784 61.708448 -7.644210 25.594264
RightUpLeg -193.830598 -48.207821 58.553702
RightLeg 114.429240 -0.000000 -0.000000
RightFoot -8.221101 52.277138 22.853681
RightToeBase 25.883635 -0.000000 -0.000000
LeftUpLeg -76.831163 42.812447 -26.186128
LeftLeg -6.961263 -0.000000 0.000000
LeftFoot 16.465845 -14.943062 -42.627383
LeftToeBase 7.907794 -0.000000 -0.000000
Spine -35.379470 42.561339 0.304472
RightShoulder -6.586994 11.788868 -29.223702
RightArm -32.385301 25.183248 61.018682
RightForeArm -10.958318 -0.000000 52.532808
RightHand 31.243210 -0.000000 -68.526560
RightHandThumb1 -24.326973 -0.000000 -32.862282
LeftShoulder -28.028037 4.299396 50.932662
LeftArm -3.161416 -14.967984 -28.453816
LeftForeArm 8.450393 -0.000000 -5.403888
LeftHand -28.934069 -0.000000 21.300595
LeftHandThumb1 -26.253704 0.000000 33.147579
Head -40.961011 32.145923 1.581842
2630
root -3.172540 16.055968 -8.939124 61.782580 -7.809481 25.585967
RightUpLeg -193.753854 -48.118909 58.351684
RightLeg 114.428189 -0.000000 -0.000000
RightFoot -8.311953 52.241010 22.722190
RightToeBase 25.705763 -0.000000 -0.000000
LeftUpLeg -76.723331 42.844460 -26.123225
LeftLeg -6.956967 -0.000000 0.000000
LeftFoot 16.309722 -14.806814 -42.630984
LeftToeBase 7.866039 -0.000000 -0.000000
Spine -35.308791 42.419581 0.342845
RightShoulder -6.644107 11.991656 -29.316746
RightArm -32.007997 25.064263 61.142679
RightForeArm -11.148167 -0.000000 52.129474
RightHand 31.777059 0.000000 -68.385813
RightHandThumb1 -24.326973 -0.000000 -32.862282
LeftShoulder -28.058460 4.240789 50.931547
LeftArm -2.841529 -15.142140 -28.298899
LeftForeArm 8.430750 -0.000000 -5.375166
LeftHand -28.937517 0.000000 21.169472
LeftHandThumb1 -26.253704 0.000000 33.147579
Head -40.850641 32.368582 1.508826
2631
root -3.167668 16.061773 -8.922510 61.857538 -7.953393 25.594468
RightUpLeg -193.730412 -48.020663 58.214841
RightLeg 114.405598 -0.000000 -0.000000
RightFoot -8.672714 52.058932 22.067125
RightToeBase 24.922393 -0.000000 -0.000000
LeftUpLeg -76.671001 42.850455 -26.153693
LeftLeg -6.967419 -0.000000 0.000000
LeftFoot 16.203004 -14.712118 -42.563047
LeftToeBase 7.706341 -0.000000 -0.000000
Spine -35.232683 42.242905 0.413691
RightShoulder -6.617969 12.190414 -29.430131
RightArm -31.636979 24.749581 61.353597
RightForeArm -11.180338 -0.000000 51.639925
RightHand 32.108304 -0.000000 -68.598434
RightHandThumb1 -24.326973 -0.000000 -32.862282
LeftShoulder -28.098124 4.230136 50.914444
LeftArm -2.437098 -15.095450 -28.193062
LeftForeArm 8.312079 -0.000000 -5.458733
LeftHand -28.833531 -0.000000 21.051430
LeftHandThumb1 -26.253704 0.000000 33.147579
Head -40.682609 32.581513 1.474336
2632
root -3.164289 16.067421 -8.908803 61.951005 -8.053181 25.573323
RightUpLeg -193.725331 -47.908572 58.146569
RightLeg 114.397438 -0.000000 -0.000000
RightFoot -8.799956 51.978272 21.954562
RightToeBase 25.275013 -0.000000 -0.000000
LeftUpLeg -76.599492 42.836847 -26.032061
LeftLeg -6.927499 -0.000000 0.000000
LeftFoot 16.015690 -14.556581 -42.456363
LeftToeBase 7.572596 -0.000000 -0.000000
Spine -35.171349 42.085565 0.521265
RightShoulder -6.566149 12.307271 -29.539152
RightArm -31.317495 24.644688 61.554472
RightForeArm -11.367680 0.000000 51.234767
RightHand 32.503257 -0.000000 -68.103821
RightHandThumb1 -24.326973 -0.000000 -32.862282
LeftShoulder -28.135551 4.205123 50.908865
LeftArm -1.996766 -15.058436 -28.103348
LeftForeArm 8.316763 -0.000000 -5.566369
LeftHand -28.814198 -0.000000 20.871559
LeftHandThumb1 -26.253704 0.000000 33.147579
Head -40.494562 32.757594 1.454789
